HIERARCHY
ROOT Hips
{
	OFFSET 0.000000 0.000000 0.000000
	CHANNELS 6 Xposition Yposition Zposition Yrotation Xrotation Zrotation
	JOINT Chest
	{
		OFFSET 0.000000 -0.009281 11.569106
		CHANNELS 3 Yrotation Xrotation Zrotation
		JOINT Chest2
		{
			OFFSET -0.000000 0.016865 9.269641
			CHANNELS 3 Yrotation Xrotation Zrotation
			JOINT Chest3
			{
				OFFSET -0.000000 0.000001 8.374491
				CHANNELS 3 Yrotation Xrotation Zrotation
				JOINT Chest4
				{
					OFFSET -0.000000 0.000001 8.374493
					CHANNELS 3 Yrotation Xrotation Zrotation
					JOINT Neck
					{
						OFFSET -0.000000 0.000002 12.152554
						CHANNELS 3 Yrotation Xrotation Zrotation
						JOINT Head
						{
							OFFSET -0.000000 0.040101 7.802319
							CHANNELS 3 Yrotation Xrotation Zrotation
							End Site
							{
								OFFSET -0.000000 0.020947 14.853096
							}
						}
					}
					JOINT RightCollar
					{
						OFFSET 2.894404 0.000001 6.791374
						CHANNELS 3 Yrotation Xrotation Zrotation
						JOINT RightShoulder
						{
							OFFSET 13.574684 0.000001 0.000000
							CHANNELS 3 Yrotation Xrotation Zrotation
							JOINT RightElbow
							{
								OFFSET 23.923903 0.000002 0.000000
								CHANNELS 3 Yrotation Xrotation Zrotation
								JOINT RightWrist
								{
									OFFSET 19.846718 0.012767 0.000000
									CHANNELS 3 Yrotation Xrotation Zrotation
									End Site
									{
										OFFSET 14.973145 0.000001 0.000000
									}
								}
							}
						}
					}
					JOINT LeftCollar
					{
						OFFSET -2.894404 0.000001 6.791374
						CHANNELS 3 Yrotation Xrotation Zrotation
						JOINT LeftShoulder
						{
							OFFSET -13.574684 -0.000001 0.000000
							CHANNELS 3 Yrotation Xrotation Zrotation
							JOINT LeftElbow
							{
								OFFSET -23.923903 -0.000002 0.000000
								CHANNELS 3 Yrotation Xrotation Zrotation
								JOINT LeftWrist
								{
									OFFSET -19.846718 0.012763 0.000000
									CHANNELS 3 Yrotation Xrotation Zrotation
									End Site
									{
										OFFSET -14.973145 -0.000001 0.000000
									}
								}
							}
						}
					}
				}
			}
		}
	}
	JOINT RightHip
	{
		OFFSET 9.469263 0.004643 0.045487
		CHANNELS 3 Yrotation Xrotation Zrotation
		JOINT RightKnee
		{
			OFFSET 0.000000 0.002661 -40.478676
			CHANNELS 3 Yrotation Xrotation Zrotation
			JOINT RightAnkle
			{
				OFFSET 0.000000 0.049106 -35.224068
				CHANNELS 3 Yrotation Xrotation Zrotation
				JOINT RightToe
				{
					OFFSET -0.000001 12.539529 -6.151390
					CHANNELS 3 Yrotation Xrotation Zrotation
					End Site
					{
						OFFSET -0.000001 5.044994 -1.291870
					}
				}
			}
		}
	}
	JOINT LeftHip
	{
		OFFSET -9.469263 0.004641 0.045487
		CHANNELS 3 Yrotation Xrotation Zrotation
		JOINT LeftKnee
		{
			OFFSET 0.000000 0.002661 -40.478676
			CHANNELS 3 Yrotation Xrotation Zrotation
			JOINT LeftAnkle
			{
				OFFSET 0.000000 0.049106 -35.224068
				CHANNELS 3 Yrotation Xrotation Zrotation
				JOINT LeftToe
				{
					OFFSET -0.000001 12.539529 -6.151390
					CHANNELS 3 Yrotation Xrotation Zrotation
					End Site
					{
						OFFSET -0.000001 5.044994 -1.291870
					}
				}
			}
		}
	}
}
MOTION
Frames: 9
Frame Time: 0.016667
13.419461 6.268724 83.023621 -6.223004 -1.230359 -103.324643 4.143551 -1.757315 0.766624 1.890528 -0.769908 0.263889 1.890528 -0.769908 0.263888 1.418208 -0.576622 0.200297 -3.866516 -15.688431 14.747219 -1.891129 6.508176 26.061273 9.129674 7.158757 -5.407492 49.991811 13.999363 -7.872300 -14.770173 -33.606006 17.476798 -44.646676 12.221096 34.626460 -7.576894 2.585333 -13.369907 -79.952501 37.747088 -70.753411 -49.454166 24.499146 -70.539359 45.396866 49.508476 31.303799 -1.761366 -10.903789 -2.425511 1.429185 -3.491651 -1.492467 -0.814126 6.698397 -5.630632 -0.024289 0.145520 -0.031799 -2.267245 -9.094785 -1.542920 0.320648 -3.824539 3.169041 -0.843961 5.442045 -3.233138 0.215515 -0.048671 0.058504 
13.465737 6.240104 83.027626 -6.158958 -1.211446 -103.264127 4.073100 -1.760892 0.781793 1.861172 -0.771224 0.271420 1.861173 -0.771225 0.271421 1.396201 -0.577598 0.205911 -3.771304 -15.597268 14.753917 -1.697223 6.657088 26.117933 9.106740 7.266555 -5.525985 49.814038 14.022261 -8.033012 -14.451509 -33.340643 16.976299 -43.369823 11.603747 34.237269 -7.505329 2.743112 -13.388013 -79.767560 38.087710 -70.833454 -49.279398 25.208512 -69.745275 42.364043 49.588471 30.595402 -1.718315 -10.938556 -2.559541 1.383572 -3.374589 -1.478136 -0.785866 6.688689 -5.568536 -0.031413 0.141610 -0.031597 -2.240376 -9.087474 -1.569501 0.319771 -3.770071 3.151775 -0.894691 5.414267 -3.262590 0.205983 -0.047448 0.058006 
13.509214 6.209429 83.032097 -6.091543 -1.198256 -103.236288 4.009404 -1.764312 0.815305 1.834517 -0.773072 0.287099 1.834518 -0.773071 0.287099 1.376231 -0.578948 0.217644 -3.679806 -15.514869 14.757047 -1.512750 6.790889 26.165968 9.075951 7.356999 -5.638649 49.601452 14.080333 -8.189742 -14.108788 -33.000506 16.514110 -42.043397 10.939480 33.794219 -7.426331 2.928732 -13.387411 -79.430285 38.402708 -70.788538 -49.143262 26.063763 -68.953690 38.596962 50.077502 29.632834 -1.675942 -10.963685 -2.627842 1.344624 -3.257837 -1.479434 -0.762566 6.673623 -5.548788 -0.037874 0.138546 -0.031108 -2.212149 -9.075426 -1.577451 0.317566 -3.723195 3.141556 -0.941359 5.391444 -3.284271 0.195477 -0.045393 0.057425 
13.548915 6.178988 83.037109 -6.020337 -1.181322 -103.198763 3.948152 -1.759680 0.837526 1.808154 -0.771680 0.297335 1.808155 -0.771681 0.297337 1.356471 -0.577887 0.225284 -3.593944 -15.443413 14.768669 -1.337586 6.904467 26.226791 9.049158 7.417010 -5.711638 49.359591 14.157135 -8.338464 -13.728261 -32.602743 16.067009 -40.728517 10.315797 33.280886 -7.292117 3.017050 -13.333190 -79.178230 38.681308 -70.825749 -49.078031 26.895448 -68.282473 34.724579 50.423192 28.502721 -1.632290 -10.981711 -2.682360 1.303348 -3.143571 -1.492381 -0.739818 6.659970 -5.539767 -0.042626 0.135269 -0.031010 -2.183256 -9.055120 -1.594769 0.314154 -3.675649 3.118471 -0.986845 5.363159 -3.291647 0.186643 -0.042836 0.056997 
13.586673 6.143541 83.042114 -5.943953 -1.164532 -103.170246 3.878178 -1.747149 0.857555 1.777018 -0.766163 0.307142 1.777018 -0.766163 0.307143 1.333127 -0.573735 0.232583 -3.498653 -15.378224 14.786379 -1.143959 7.003848 26.301921 9.020417 7.501223 -5.815118 49.175607 14.130861 -8.450783 -13.408922 -32.147146 15.612648 -39.385388 9.645137 32.763065 -7.157159 3.016317 -13.333496 -78.936537 39.035730 -70.979469 -48.780900 27.740952 -67.491449 30.643435 50.607023 27.094881 -1.590090 -10.996040 -2.731408 1.263504 -3.021766 -1.508506 -0.716179 6.643560 -5.468347 -0.047608 0.130604 -0.029993 -2.152789 -9.033090 -1.594994 0.310680 -3.620391 3.086152 -1.033962 5.333398 -3.269719 0.180008 -0.042201 0.057331 
13.623616 6.110160 83.046913 -5.866769 -1.147456 -103.146833 3.795937 -1.726713 0.885693 1.741124 -0.757289 0.319875 1.741124 -0.757290 0.319874 1.306220 -0.567061 0.242063 -3.385970 -15.320195 14.800019 -0.920838 7.087121 26.375237 8.992964 7.591095 -5.933535 48.987199 14.138628 -8.570889 -13.151050 -31.764341 15.178912 -38.047022 8.850898 32.198751 -7.092463 3.055452 -13.433157 -78.575056 39.508434 -71.080447 -48.266952 28.578285 -66.507089 26.360490 50.365859 25.506329 -1.544551 -11.007512 -2.785837 1.221203 -2.902411 -1.504526 -0.692527 6.628051 -5.436090 -0.054256 0.126565 -0.030333 -2.121635 -9.015928 -1.585934 0.307438 -3.554061 3.066583 -1.081112 5.300734 -3.277887 0.172426 -0.043691 0.056442 
13.659237 6.074781 83.051224 -5.783834 -1.135656 -103.155404 3.710040 -1.707510 0.927769 1.703373 -0.749163 0.339640 1.703372 -0.749163 0.339643 1.277929 -0.560931 0.256818 -3.262601 -15.262153 14.813630 -0.677873 7.168114 26.452635 8.955057 7.681454 -6.073818 48.783421 14.233523 -8.645817 -12.864192 -31.494515 14.719811 -36.758422 8.188531 31.649867 -7.071560 3.153403 -13.553749 -78.099484 39.993094 -71.154076 -47.489663 29.401225 -65.345424 22.520227 49.795924 24.159467 -1.505489 -11.015623 -2.768596 1.194063 -2.768955 -1.537039 -0.671780 6.604801 -5.420085 -0.062963 0.120407 -0.029987 -2.091666 -9.006818 -1.530088 0.306835 -3.465036 3.038550 -1.122078 5.264507 -3.280927 0.161883 -0.048523 0.055945 
13.694826 6.040592 83.055046 -5.696223 -1.120811 -103.127073 3.628177 -1.690064 0.956403 1.668368 -0.741641 0.352299 1.668368 -0.741642 0.352301 1.251687 -0.555275 0.266248 -3.146883 -15.203687 14.826770 -0.448964 7.251162 26.526561 8.899005 7.786101 -6.212559 48.540160 14.354811 -8.752965 -12.561913 -31.149832 14.340163 -35.394296 7.497856 31.040420 -7.050161 3.305535 -13.666752 -77.546928 40.494037 -71.181062 -46.499907 30.194306 -63.909916 18.334903 49.282748 22.547349 -1.461493 -11.027895 -2.807584 1.166255 -2.627316 -1.558244 -0.647361 6.581958 -5.383512 -0.071904 0.115845 -0.030123 -2.051460 -8.998995 -1.507378 0.298946 -3.357667 2.996392 -1.155750 5.219613 -3.299074 0.149966 -0.055892 0.055682 
13.731668 6.004972 83.058929 -5.605513 -1.106566 -103.094240 3.563483 -1.671620 0.969677 1.640636 -0.733383 0.357653 1.640636 -0.733383 0.357652 1.230889 -0.549081 0.270205 -3.058623 -15.153630 14.851951 -0.268036 7.322306 26.612017 8.825346 7.878418 -6.282201 48.237231 14.497189 -8.874119 -12.262870 -30.828387 13.983925 -33.922479 6.587802 30.321139 -6.994500 3.472659 -13.660349 -76.903566 40.897708 -71.081567 -45.660272 30.932755 -62.583562 14.171681 48.813709 20.913650 -1.416664 -11.041699 -2.828274 1.143713 -2.480394 -1.600186 -0.620620 6.556049 -5.359995 -0.083015 0.115134 -0.030739 -2.010100 -8.993751 -1.485109 0.289786 -3.239220 2.956166 -1.187072 5.172008 -3.320867 0.140126 -0.064207 0.056625 
